<svg width="503" height="503" viewBox="0 0 503 503" fill="none" xmlns="http://www.w3.org/2000/svg">
<circle cx="251.5" cy="251.5" r="251.5" fill="#876649"/>
<mask id="mask0" mask-type="alpha" maskUnits="userSpaceOnUse" x="0" y="0" width="503" height="503">
<circle cx="251.5" cy="251.5" r="251.5" fill="#6C5437"/>
</mask>
<g mask="url(#mask0)">
<path fill-rule="evenodd" clip-rule="evenodd" d="M414.39 169.764L463.346 217.282L574.989 264.685L442.138 401.559L430.734 376.78L422.84 384.913C417.644 391.341 395.559 387.779 376.126 375.026L287.011 325.027L263.196 324.853L274.661 313.04L298.476 313.214L388.113 362.677C388.113 362.677 398.804 369.926 408.343 370.842C413.552 371.342 419.467 366.309 423.764 361.637L391.427 291.379L302.933 205.485L374.853 131.389L399.089 154.913L431 124L558 183L540 211L431 155L414.39 169.764Z" fill="#2F2F2F"/>
<path d="M179.081 365.677C240.11 385.454 272.985 387.179 328.655 364.464L252.818 495.818L179.081 365.677Z" fill="#F0F0F0"/>
<path d="M179.081 365.677C238.558 397.628 271.518 399.212 328.655 364.464L252.818 495.818L179.081 365.677Z" fill="white"/>
<path d="M187 399.818C237.064 409.453 265.905 409.339 318.636 399.818L252.818 513.818L187 399.818Z" fill="#C4C4C4" fill-opacity="0.32"/>
<path fill-rule="evenodd" clip-rule="evenodd" d="M230.119 507C226.917 507 224.024 505.091 222.764 502.146L205.653 462.146C203.395 456.868 207.268 451 213.009 451H289.762C295.503 451 299.375 456.868 297.117 462.146L280.006 502.146C278.747 505.091 275.853 507 272.651 507H230.119Z" fill="#BE7609"/>
<rect x="211" y="476" width="81" height="9" rx="1" fill="#45301C"/>
</g>
<path d="M259.305 78.6805C199.296 13.9135 95.7185 40.9285 100.493 160.274C105.268 279.619 215.544 225.213 248.453 295.368C281.362 365.523 319.314 143.448 259.305 78.6805Z" fill="#C4C4C4" fill-opacity="0.54"/>
<path d="M196.92 192.704C196.056 192.704 195.4 192.688 194.952 192.656C193.576 198.672 192.808 202.848 192.648 205.184C191.272 205.856 189.176 206.192 186.36 206.192C185.752 206.192 185.336 206.176 185.112 206.144C185.336 204.256 186.296 199.52 187.992 191.936C189.688 184.32 190.536 179.52 190.536 177.536C190.536 177.152 190.312 176.656 189.864 176.048C189.448 175.408 189.016 174.88 188.568 174.464L187.944 173.84L188.088 173.12C193.464 172.32 197.816 171.92 201.144 171.92C207.736 171.92 211.032 174.608 211.032 179.984C211.032 183.568 209.848 186.592 207.48 189.056C205.112 191.488 201.592 192.704 196.92 192.704ZM196.152 189.488C198.616 189.488 200.472 188.56 201.72 186.704C203 184.848 203.64 182.368 203.64 179.264C203.64 177.984 203.4 176.944 202.92 176.144C202.44 175.312 201.736 174.896 200.808 174.896C200.2 174.896 199.448 175.008 198.552 175.232C198.04 178.592 197.08 183.344 195.672 189.488H196.152ZM224.947 186.128C225.011 186.064 225.187 185.648 225.475 184.88C226.979 184.88 228.995 185.328 231.523 186.224C230.723 188.88 230.083 191.664 229.603 194.576C229.123 197.456 228.883 199.52 228.883 200.768C228.883 201.984 229.011 202.592 229.267 202.592C229.459 202.592 230.163 202.288 231.379 201.68L231.955 201.392L232.819 203.072C232.531 203.328 232.147 203.648 231.667 204.032C231.219 204.416 230.355 204.944 229.075 205.616C227.795 206.256 226.643 206.576 225.619 206.576C223.635 206.576 222.483 205.68 222.163 203.888C220.115 205.68 218.259 206.576 216.595 206.576C214.963 206.576 213.571 205.936 212.419 204.656C211.299 203.376 210.739 201.36 210.739 198.608C210.739 194.32 211.619 190.944 213.379 188.48C215.139 185.984 217.267 184.736 219.763 184.736C221.555 184.736 223.283 185.2 224.947 186.128ZM219.475 202.496C220.243 202.496 221.107 202.192 222.067 201.584C222.291 197.072 223.043 192.608 224.323 188.192C223.363 187.776 222.547 187.568 221.875 187.568C220.723 187.568 219.731 188.704 218.899 190.976C218.099 193.216 217.699 195.696 217.699 198.416C217.699 201.136 218.291 202.496 219.475 202.496ZM237.402 206.576C236.314 206.576 235.402 206.208 234.666 205.472C233.962 204.736 233.61 203.712 233.61 202.4C233.61 201.056 234.394 196.816 235.962 189.68C237.562 182.512 238.362 177.344 238.362 174.176L238.074 172.064C240.57 171.2 242.906 170.768 245.082 170.768C245.402 171.216 245.562 172 245.562 173.12C245.562 175.68 244.746 180.64 243.114 188C241.514 195.328 240.714 199.6 240.714 200.816C240.714 202 240.858 202.592 241.146 202.592L244.506 201.392L245.37 203.072C244.282 203.936 242.954 204.736 241.386 205.472C239.85 206.208 238.522 206.576 237.402 206.576Z" fill="#2F2F2F"/>
<path d="M169.12 159.432C167.464 159.432 166.168 158.856 165.232 157.704C164.296 156.528 163.828 154.896 163.828 152.808C163.828 150.144 164.536 147.852 165.952 145.932C167.392 144.012 169.372 143.052 171.892 143.052L173.188 143.124C173.596 142.908 174.052 142.8 174.556 142.8C176.452 142.8 177.4 144.588 177.4 148.164C178.384 148.116 179.38 147.984 180.388 147.768L180.964 147.624L181.18 149.028C180.388 149.364 179.32 149.664 177.976 149.928L177.256 150.072C176.8 152.592 175.876 154.788 174.484 156.66C173.092 158.508 171.304 159.432 169.12 159.432ZM171.064 156.336C172.072 156.336 172.972 155.688 173.764 154.392C174.58 153.096 175.144 151.728 175.456 150.288C172.888 150.288 171.604 149.328 171.604 147.408C171.604 146.64 171.76 145.92 172.072 145.248L172.252 144.888C172.156 144.84 172.036 144.816 171.892 144.816C171.748 144.816 171.64 144.84 171.568 144.888C170.968 145.272 170.404 146.172 169.876 147.588C169.348 149.004 169.084 150.624 169.084 152.448C169.084 155.04 169.744 156.336 171.064 156.336ZM182.478 143.052C183.534 143.052 184.314 143.268 184.818 143.7C185.346 144.132 185.61 145.02 185.61 146.364C185.61 147.084 185.394 148.56 184.962 150.792C184.53 153 184.314 154.344 184.314 154.824C184.314 155.784 184.506 156.264 184.89 156.264C185.802 156.264 186.798 155.592 187.878 154.248C188.982 152.88 189.558 151.74 189.606 150.828L187.158 148.092C187.254 147.06 187.506 146.124 187.914 145.284C188.322 144.444 188.706 143.856 189.066 143.52L189.57 143.052C190.602 143.052 191.382 143.328 191.91 143.88C192.438 144.432 192.702 145.08 192.702 145.824C192.702 147.72 192.234 149.724 191.298 151.836C190.362 153.948 189.114 155.748 187.554 157.236C185.994 158.7 184.41 159.432 182.802 159.432C181.794 159.432 181.014 159.12 180.462 158.496C179.934 157.872 179.67 157.056 179.67 156.048C179.67 155.016 179.742 153.636 179.886 151.908C180.054 150.18 180.138 148.464 180.138 146.76C180.138 146.376 179.994 145.92 179.706 145.392C179.442 144.864 179.166 144.444 178.878 144.132L178.986 143.7C180.282 143.268 181.446 143.052 182.478 143.052ZM193.01 152.772C193.01 149.772 193.91 147.408 195.71 145.68C197.534 143.928 199.598 143.052 201.902 143.052C203.318 143.052 204.482 143.4 205.394 144.096C206.306 144.792 206.762 145.728 206.762 146.904C206.762 148.056 206.462 149.028 205.862 149.82C205.286 150.612 204.578 151.224 203.738 151.656C202.034 152.496 200.474 153.024 199.058 153.24L198.194 153.348C198.362 155.604 199.286 156.732 200.966 156.732C201.542 156.732 202.154 156.588 202.802 156.3C203.45 156.012 203.954 155.724 204.314 155.436L204.854 155.004L205.718 156.156C205.526 156.42 205.142 156.768 204.566 157.2C203.99 157.632 203.45 157.992 202.946 158.28C201.554 159.048 200.03 159.432 198.374 159.432C196.718 159.432 195.41 158.844 194.45 157.668C193.49 156.492 193.01 154.86 193.01 152.772ZM198.158 151.584C199.382 151.368 200.354 150.852 201.074 150.036C201.794 149.22 202.154 148.164 202.154 146.868C202.154 145.572 201.77 144.924 201.002 144.924C200.09 144.924 199.382 145.704 198.878 147.264C198.398 148.8 198.158 150.24 198.158 151.584ZM208.253 159.108H208.001C207.953 158.916 207.929 158.484 207.929 157.812C207.929 157.116 208.253 155.268 208.901 152.268C209.549 149.268 209.873 147.552 209.873 147.12C209.873 146.376 209.537 145.56 208.865 144.672L208.541 144.24L208.577 143.772C209.873 143.412 211.949 143.232 214.805 143.232C215.093 143.856 215.237 144.732 215.237 145.86C215.501 145.428 216.053 144.852 216.893 144.132C217.733 143.412 218.597 143.052 219.485 143.052C220.781 143.052 221.429 144.18 221.429 146.436C221.309 146.58 221.141 146.772 220.925 147.012C220.733 147.228 220.325 147.54 219.701 147.948C219.101 148.356 218.513 148.608 217.937 148.704C217.913 148.704 217.709 148.38 217.325 147.732C216.941 147.084 216.653 146.76 216.461 146.76C215.861 146.976 215.333 147.336 214.877 147.84C213.773 152.808 213.221 156.024 213.221 157.488C213.221 158.016 213.233 158.388 213.257 158.604C212.417 158.94 210.749 159.108 208.253 159.108Z" fill="#2F2F2F"/>
<path d="M154.92 114.704C154.056 114.704 153.4 114.688 152.952 114.656C151.576 120.672 150.808 124.848 150.648 127.184C149.272 127.856 147.176 128.192 144.36 128.192C143.752 128.192 143.336 128.176 143.112 128.144C143.336 126.256 144.296 121.52 145.992 113.936C147.688 106.32 148.536 101.52 148.536 99.536C148.536 99.152 148.312 98.656 147.864 98.048C147.448 97.408 147.016 96.88 146.568 96.464L145.944 95.84L146.088 95.12C151.464 94.32 155.816 93.92 159.144 93.92C165.736 93.92 169.032 96.608 169.032 101.984C169.032 105.568 167.848 108.592 165.48 111.056C163.112 113.488 159.592 114.704 154.92 114.704ZM154.152 111.488C156.616 111.488 158.472 110.56 159.72 108.704C161 106.848 161.64 104.368 161.64 101.264C161.64 99.984 161.4 98.944 160.92 98.144C160.44 97.312 159.736 96.896 158.808 96.896C158.2 96.896 157.448 97.008 156.552 97.232C156.04 100.592 155.08 105.344 153.672 111.488H154.152ZM173.816 128.576C171.608 128.576 169.88 127.808 168.632 126.272C167.384 124.704 166.76 122.528 166.76 119.744C166.76 116.192 167.704 113.136 169.592 110.576C171.512 108.016 174.152 106.736 177.512 106.736L179.24 106.832C179.784 106.544 180.392 106.4 181.064 106.4C183.592 106.4 184.856 108.784 184.856 113.552C186.168 113.488 187.496 113.312 188.84 113.024L189.608 112.832L189.896 114.704C188.84 115.152 187.416 115.552 185.624 115.904L184.664 116.096C184.056 119.456 182.824 122.384 180.968 124.88C179.112 127.344 176.728 128.576 173.816 128.576ZM176.408 124.448C177.752 124.448 178.952 123.584 180.008 121.856C181.096 120.128 181.848 118.304 182.264 116.384C178.84 116.384 177.128 115.104 177.128 112.544C177.128 111.52 177.336 110.56 177.752 109.664L177.992 109.184C177.864 109.12 177.704 109.088 177.512 109.088C177.32 109.088 177.176 109.12 177.08 109.184C176.28 109.696 175.528 110.896 174.824 112.784C174.12 114.672 173.768 116.832 173.768 119.264C173.768 122.72 174.648 124.448 176.408 124.448ZM186.652 124.4C186.652 123.024 187.068 120.688 187.9 117.392C188.732 114.064 189.148 112.032 189.148 111.296C189.148 110.528 188.572 109.52 187.42 108.272L187.468 107.648C189.644 107.2 192.508 106.976 196.06 106.976C196.22 107.392 196.3 108.144 196.3 109.232C196.3 110.32 195.852 112.64 194.956 116.192C194.06 119.744 193.612 121.952 193.612 122.816C193.612 123.68 193.932 124.112 194.572 124.112C195.5 124.112 196.572 123.776 197.788 123.104C197.916 122.336 198.236 120.864 198.748 118.688C199.9 113.568 200.476 109.904 200.476 107.696C201.596 107.248 203.612 107.024 206.524 107.024H207.436C207.436 108.528 206.988 111.472 206.092 115.856C205.196 120.208 204.748 122.768 204.748 123.536C204.748 124.272 204.908 124.64 205.228 124.64C205.42 124.64 206.332 124.256 207.964 123.488L208.876 125.024C206.028 127.392 203.532 128.576 201.388 128.576C200.364 128.576 199.484 128.288 198.748 127.712C198.044 127.136 197.644 126.384 197.548 125.456C194.956 127.568 192.604 128.624 190.492 128.624C189.372 128.624 188.444 128.256 187.708 127.52C187.004 126.784 186.652 125.744 186.652 124.4ZM211.181 128.144H210.845C210.781 127.888 210.749 127.312 210.749 126.416C210.749 125.488 211.181 123.024 212.045 119.024C212.909 115.024 213.341 112.736 213.341 112.16C213.341 111.168 212.893 110.08 211.997 108.896L211.565 108.32L211.613 107.696C213.341 107.216 216.109 106.976 219.917 106.976C220.301 107.808 220.493 108.976 220.493 110.48C220.845 109.904 221.581 109.136 222.701 108.176C223.821 107.216 224.973 106.736 226.157 106.736C227.885 106.736 228.749 108.24 228.749 111.248C228.589 111.44 228.365 111.696 228.077 112.016C227.821 112.304 227.277 112.72 226.445 113.264C225.645 113.808 224.861 114.144 224.093 114.272C224.061 114.272 223.789 113.84 223.277 112.976C222.765 112.112 222.381 111.68 222.125 111.68C221.325 111.968 220.621 112.448 220.013 113.12C218.541 119.744 217.805 124.032 217.805 125.984C217.805 126.688 217.821 127.184 217.853 127.472C216.733 127.92 214.509 128.144 211.181 128.144Z" fill="#2F2F2F"/>
</svg>
